<?xml version="1.0" standalone="no"?>
<!DOCTYPE svg PUBLIC "-//W3C//DTD SVG 20010904//EN"
 "http://www.w3.org/TR/2001/REC-SVG-20010904/DTD/svg10.dtd">
<svg version="1.0" xmlns="http://www.w3.org/2000/svg"
 width="689.000000pt" height="689.000000pt" viewBox="0 0 689.000000 689.000000"
 preserveAspectRatio="xMidYMid meet">
<metadata>
Created by potrace 1.11, written by Peter Selinger 2001-2013
</metadata>
<g transform="translate(0.000000,689.000000) scale(0.100000,-0.100000)"
fill="#000000" stroke="none">
<path d="M0 4961 l0 -1930 33 -3 c40 -4 40 -19 -2 -37 l-31 -15 0 -1488 0
-1488 1300 0 1301 0 -6 48 c-5 43 -18 103 -30 142 -3 8 -10 40 -16 70 -6 30
-19 96 -30 145 -25 117 -30 165 -19 165 6 0 10 -7 10 -15 0 -8 4 -15 9 -15 4
0 7 23 6 50 -1 28 2 50 6 50 5 0 9 14 9 30 0 28 -20 45 -20 18 0 -7 -5 -5 -11
4 -5 10 -11 45 -12 78 -1 36 -7 61 -14 64 -7 3 -10 12 -7 20 3 8 1 17 -5 21
-8 4 -8 12 -1 26 8 15 7 19 -4 19 -14 0 -33 81 -22 98 3 5 -1 34 -8 65 -7 31
-9 57 -5 57 5 0 9 -4 9 -10 0 -5 6 -7 13 -4 7 2 22 -6 34 -18 26 -28 39 -68
23 -68 -18 0 -9 -14 38 -64 24 -25 40 -46 36 -46 -4 0 2 -9 14 -20 12 -11 25
-20 30 -20 5 0 39 -28 75 -63 37 -35 67 -60 67 -56 0 10 -120 129 -130 129
-12 0 -124 129 -117 136 3 3 15 -4 26 -15 12 -12 25 -21 30 -21 13 0 22 43 11
54 -4 4 -6 15 -3 22 4 10 0 12 -13 7 -14 -5 -16 -3 -11 11 4 9 3 15 -2 11 -5
-3 -11 1 -14 7 -3 11 -7 10 -19 0 -12 -10 -18 -10 -27 2 -8 9 -8 15 -2 18 6 1
8 14 4 26 -4 18 -8 20 -14 10 -7 -10 -9 -9 -9 4 0 9 4 20 10 23 5 3 10 12 9
18 0 9 -2 9 -6 -1 -9 -22 -20 -13 -15 13 3 17 -4 39 -20 63 -32 47 -34 54 -57
187 -17 95 -19 144 -16 367 4 201 8 266 21 304 14 41 14 60 4 148 -11 89 -18
109 -52 164 -86 139 -172 360 -208 535 -9 45 -15 57 -27 53 -8 -3 -17 -6 -19
-6 -2 0 -4 -9 -4 -19 0 -17 -6 -19 -37 -15 -21 2 -49 13 -63 23 -33 24 -70 89
-70 125 0 15 -22 78 -49 140 -31 68 -58 149 -70 211 -28 133 -37 171 -45 183
-3 5 -8 59 -11 119 -3 63 -9 107 -15 105 -6 -1 -10 2 -10 8 0 21 -20 9 -21
-12 -1 -22 -1 -22 -9 2 l-8 25 -1 -27 c-1 -21 -7 -28 -29 -33 -29 -6 -75 6
-86 23 -3 5 -35 13 -71 17 -36 3 -67 10 -70 15 -9 14 51 21 160 19 161 -2 157
-3 182 66 23 61 61 105 91 105 20 -1 62 -34 62 -49 0 -6 3 -11 8 -11 4 0 16
-19 27 -41 10 -23 25 -43 32 -46 7 -3 22 -20 33 -38 16 -26 21 -53 23 -126 2
-89 1 -94 -21 -104 -12 -5 -22 -15 -22 -22 0 -6 -15 -31 -33 -55 -46 -60 -50
-74 -33 -133 17 -56 37 -80 77 -90 30 -7 48 10 30 28 -18 18 -13 80 11 128 12
24 24 55 26 69 2 14 9 32 16 40 7 8 18 67 24 130 10 111 61 389 83 460 19 60
52 130 62 130 5 0 6 7 3 16 -3 8 -2 12 4 9 6 -3 10 -2 10 3 0 4 9 18 21 31 12
12 18 25 15 28 -3 3 1 18 9 33 11 22 12 30 2 33 -8 4 -9 8 -1 14 19 15 25 43
8 43 -11 0 -9 9 11 43 13 23 29 52 35 65 12 28 35 52 49 52 6 0 11 4 11 10 0
5 7 7 15 4 8 -4 15 -1 15 5 0 6 6 11 13 11 18 0 55 44 63 75 4 18 15 28 34 31
20 5 36 22 65 71 21 36 49 70 61 75 13 6 24 14 24 18 0 4 14 10 31 14 17 3 28
10 24 16 -3 6 2 13 12 16 10 3 25 8 33 10 13 5 13 6 0 15 -13 9 -12 10 1 6 21
-7 102 16 93 26 -4 4 2 7 12 7 11 0 24 4 30 8 13 12 110 34 163 37 25 2 67 6
92 10 31 5 49 3 53 -4 4 -6 17 -11 29 -10 12 0 16 3 10 6 -30 12 -8 20 55 20
152 0 225 4 235 10 15 9 114 6 130 -4 15 -9 19 -10 61 -12 19 0 42 -8 51 -17
12 -13 21 -14 39 -6 18 8 26 5 44 -15 12 -14 22 -27 22 -30 0 -9 34 -32 48
-33 8 0 12 6 10 13 -3 6 -11 12 -18 12 -7 0 -15 6 -17 13 -7 19 21 14 39 -8
38 -44 61 -110 38 -110 -5 0 -10 -18 -10 -40 0 -28 4 -40 14 -40 8 0 16 6 18
12 3 7 12 1 23 -16 16 -23 16 -29 4 -37 -8 -5 -20 -7 -27 -4 -8 3 -16 -4 -19
-16 -3 -11 -11 -18 -19 -15 -10 4 -10 -1 1 -27 8 -19 22 -33 34 -35 15 -2 21
-11 21 -28 0 -28 -16 -32 -23 -6 -3 10 -5 6 -6 -10 -1 -32 -7 -34 -33 -12 -16
16 -18 16 -24 0 -3 -9 -4 -22 -1 -30 3 -8 1 -16 -4 -18 -19 -6 54 -51 84 -52
24 -1 34 -9 49 -36 11 -19 35 -49 54 -67 30 -27 34 -35 24 -52 -6 -12 -16 -18
-25 -15 -11 5 -14 0 -11 -17 2 -14 10 -23 17 -21 10 2 10 -1 -2 -13 -21 -21
-119 -32 -119 -13 0 10 -2 10 -8 0 -9 -13 -109 -42 -148 -42 -13 0 -27 -7 -30
-15 -4 -8 -18 -15 -34 -15 -15 0 -33 -6 -40 -14 -6 -8 -18 -12 -26 -9 -8 3
-21 0 -29 -7 -12 -10 -15 -9 -15 4 0 13 -4 14 -25 4 -14 -6 -25 -19 -25 -29 0
-10 -4 -21 -10 -24 -5 -3 -10 -1 -10 4 0 17 -17 13 -24 -5 -8 -20 12 -57 26
-48 12 8 2 -47 -11 -56 -4 -3 -7 -14 -8 -25 0 -11 -3 -37 -8 -57 -6 -31 -4
-38 8 -38 8 0 18 6 21 13 3 6 3 2 0 -11 -7 -30 14 -92 32 -92 15 0 16 -6 5
-34 -7 -17 -8 -16 -24 7 -9 15 -19 37 -20 49 -4 25 -31 36 -42 18 -4 -6 -9
-43 -11 -81 -4 -55 0 -80 15 -114 11 -25 26 -45 33 -45 9 0 9 -3 -2 -10 -12
-7 -12 -12 -2 -22 6 -6 12 -21 12 -33 0 -11 8 -25 18 -31 10 -7 24 -31 31 -54
12 -39 11 -43 -12 -64 -35 -33 -27 -76 14 -76 16 0 29 4 29 8 0 4 14 16 30 26
l31 17 29 -31 c17 -18 30 -40 30 -50 0 -11 5 -22 10 -25 15 -9 12 -19 -12 -34
-14 -9 -52 -13 -113 -13 -81 1 -94 -2 -118 -22 -15 -13 -27 -28 -27 -34 0 -6
-5 -12 -11 -14 -5 -2 -11 -12 -13 -23 -2 -14 -14 -23 -38 -29 -41 -10 -104 14
-173 68 -50 40 -129 44 -167 9 -13 -11 -32 -23 -43 -25 -17 -4 -16 -6 10 -17
17 -7 38 -17 47 -22 10 -5 32 -9 49 -9 24 0 30 4 25 15 -3 9 0 15 9 15 7 0 15
-10 17 -22 2 -18 13 -25 46 -32 23 -6 42 -13 42 -18 0 -4 11 -8 25 -8 14 0 25
-4 25 -10 0 -5 -4 -10 -10 -10 -17 0 -11 -36 8 -53 23 -21 52 -22 52 -1 0 8 5
12 10 9 6 -4 8 -11 5 -16 -4 -5 0 -9 9 -9 8 0 16 6 19 13 3 9 9 7 24 -5 22
-20 48 -24 37 -6 -5 7 -2 9 7 6 56 -23 56 -23 35 0 -25 29 -17 35 25 21 40
-14 60 -29 37 -29 -15 0 -33 -28 -24 -37 2 -2 13 1 25 8 11 7 24 10 28 6 4 -5
1 -12 -7 -17 -11 -7 -6 -10 18 -10 31 0 42 12 22 25 -17 10 -11 35 8 35 14 0
15 -2 2 -10 -12 -8 -12 -10 3 -16 9 -3 17 -12 17 -19 0 -7 7 -15 14 -18 11 -4
13 -1 9 10 -5 13 -2 15 18 9 53 -16 69 -18 69 -7 0 6 7 11 15 11 8 0 15 7 15
15 0 8 5 15 10 15 6 0 10 -4 10 -10 0 -5 12 -10 28 -10 25 -1 26 -2 9 -14 -10
-8 -27 -12 -38 -9 -17 5 -19 2 -14 -27 5 -31 4 -32 -20 -26 -31 8 -33 -9 -3
-25 l22 -12 -23 -18 c-13 -11 -18 -19 -11 -19 8 0 8 -4 -2 -13 -9 -9 -34 -12
-88 -8 -78 5 -89 5 -340 -2 -114 -3 -167 -9 -200 -21 -64 -24 -199 -47 -235
-40 -41 9 -50 15 -34 25 11 7 12 11 1 17 -7 5 -10 16 -6 25 3 9 1 17 -4 17 -6
0 -18 7 -26 16 -15 14 -17 13 -26 -11 -6 -15 -8 -31 -4 -36 6 -11 -12 -31 -43
-48 -14 -7 -20 -17 -17 -26 4 -10 0 -15 -11 -15 -16 0 -17 -2 -3 -17 23 -27
33 -84 17 -94 -10 -6 -8 -9 8 -9 12 0 25 5 28 11 15 23 57 28 151 19 80 -7 99
-6 111 6 17 17 62 18 83 3 13 -9 13 -10 -2 -6 -9 3 -21 0 -28 -7 -8 -11 -2
-18 26 -35 27 -16 54 -22 112 -23 84 -1 273 18 337 33 94 24 91 24 77 7 -7 -9
-33 -19 -57 -23 -25 -3 -50 -12 -57 -18 -14 -13 -22 -14 -156 -18 -63 -1 -95
-6 -99 -15 -2 -6 -13 -9 -24 -7 -11 3 -28 -2 -39 -12 -12 -10 -20 -13 -20 -7
0 7 -6 12 -14 12 -11 0 -12 -5 -3 -24 7 -13 15 -22 19 -20 5 3 11 -2 14 -10 3
-9 15 -16 25 -16 11 0 16 5 13 14 -4 10 2 12 21 8 20 -3 23 -7 13 -13 -9 -6
-5 -9 13 -9 14 0 31 6 38 13 10 10 15 9 25 -5 7 -10 16 -15 19 -12 3 4 12 4
19 2 23 -9 33 -8 33 4 0 7 16 12 39 13 27 0 44 7 57 24 19 23 20 23 34 5 11
-15 14 -16 15 -4 0 16 63 72 92 83 12 4 26 -2 42 -18 27 -27 52 -32 58 -13 3
7 10 8 17 4 11 -7 11 -10 0 -17 -11 -7 -10 -9 3 -9 18 0 23 5 59 53 11 15 27
27 35 27 8 0 14 9 14 21 0 15 -5 19 -15 15 -9 -3 -15 0 -15 8 0 21 50 27 50 7
1 -14 2 -13 11 2 9 15 13 16 26 5 14 -11 15 -10 9 10 -5 16 -3 24 8 28 9 3 13
10 10 15 -3 5 2 16 10 25 18 17 22 74 6 74 -5 0 -10 9 -10 20 0 13 -10 24 -25
30 -21 8 -24 14 -19 35 4 18 2 25 -8 25 -15 0 -18 26 -4 48 4 7 0 19 -9 29
-14 14 -18 14 -26 2 -5 -8 -9 -11 -10 -6 -7 36 -21 57 -39 57 -11 0 -22 -4
-25 -10 -3 -5 -17 -10 -31 -10 -21 0 -24 -3 -19 -21 5 -14 3 -19 -3 -15 -6 3
-12 0 -15 -6 -2 -7 -8 -10 -12 -5 -5 4 -3 13 3 19 7 7 12 16 12 20 0 13 -17 9
-34 -8 -14 -14 -18 -14 -31 0 -8 8 -15 22 -15 30 0 9 -3 16 -7 17 -62 6 -89
13 -96 25 -4 7 -19 14 -32 14 -26 0 -32 9 -15 26 15 15 1 53 -18 48 -10 -3 -4
2 12 11 20 12 31 14 36 6 3 -7 15 -9 26 -6 16 6 17 5 3 -4 -10 -7 -15 -19 -12
-35 9 -45 195 -92 238 -59 20 14 20 14 -2 33 -13 10 -23 24 -23 30 0 7 -7 10
-15 6 -20 -7 -21 47 0 64 8 7 20 30 26 52 7 27 15 38 24 34 25 -9 28 31 4 55
-15 15 -24 18 -27 11 -7 -21 -18 -13 -32 23 -8 19 -17 35 -22 35 -4 0 -8 8 -8
18 0 9 -23 41 -50 70 -53 55 -63 78 -31 69 29 -7 45 7 37 37 -8 31 -22 34 -29
6 -8 -30 -36 -25 -42 8 -4 15 -10 35 -16 44 -5 10 -9 28 -9 42 0 13 -6 29 -14
35 -8 7 -14 21 -13 32 1 18 3 17 25 -6 13 -14 21 -33 18 -41 -3 -9 1 -14 14
-14 26 0 36 21 17 35 -9 6 -19 23 -22 38 -4 15 -12 27 -19 27 -7 0 -6 4 2 9 8
4 12 12 11 17 -2 5 9 15 24 22 22 11 31 10 54 -2 18 -10 22 -16 13 -17 -26 -4
-34 -6 -60 -17 -14 -6 -19 -11 -12 -11 6 -1 12 -8 12 -16 0 -8 8 -15 18 -15
10 0 23 -5 29 -11 11 -11 123 -24 123 -14 0 4 -7 14 -16 22 -14 15 -14 17 0
25 25 14 19 27 -11 25 -21 -2 -29 3 -31 18 -2 17 2 21 25 19 15 -1 28 -3 28
-4 0 -4 54 -9 119 -10 37 -1 61 3 66 10 4 7 12 10 17 7 6 -4 23 -3 40 2 20 6
37 4 54 -5 13 -7 38 -13 55 -14 42 0 103 -27 111 -48 9 -24 51 -62 66 -59 6 1
16 -8 22 -20 5 -13 13 -23 17 -23 5 0 8 10 9 23 l0 22 10 -24 c6 -16 6 -28 -1
-36 -7 -8 -7 -15 -1 -19 5 -3 11 0 14 6 6 18 18 5 22 -24 2 -12 9 -43 14 -68
9 -41 7 -48 -17 -80 l-27 -35 -3 33 c-2 17 -8 32 -14 32 -6 0 -8 -12 -5 -27 3
-15 -2 -48 -10 -73 -11 -31 -12 -45 -4 -48 6 -2 11 -11 11 -21 0 -9 6 -23 12
-29 10 -10 10 -15 -1 -21 -13 -8 -17 -39 -10 -71 3 -9 -3 -14 -13 -14 -18 2
-34 -29 -23 -46 3 -5 13 -10 21 -10 10 0 13 -7 9 -27 -6 -27 -6 -27 9 -9 15
19 16 17 16 -24 0 -41 -1 -42 -15 -24 -14 18 -14 18 -15 -4 0 -35 34 -25 38
11 2 15 7 27 12 27 5 0 10 9 12 20 4 30 24 20 20 -10 -10 -80 -6 -150 10 -167
16 -16 16 -17 -4 -27 -28 -15 -28 -29 0 -41 15 -7 22 -18 22 -37 0 -15 5 -30
10 -33 15 -9 12 -48 -5 -71 -9 -12 -12 -31 -9 -51 6 -30 4 -33 -18 -33 -21 0
-24 -4 -20 -34 2 -19 -3 -49 -11 -67 -9 -19 -19 -49 -22 -68 -5 -22 -10 -29
-15 -21 -10 17 -30 4 -30 -21 0 -13 -7 -19 -21 -19 -18 0 -21 -4 -16 -29 5
-25 3 -28 -13 -24 -15 4 -19 -1 -22 -29 l-4 -33 -12 28 c-6 15 -17 27 -23 27
-7 0 -10 12 -7 29 2 17 1 28 -4 25 -4 -3 -8 -14 -8 -25 0 -10 -4 -19 -9 -19
-16 0 -22 18 -12 37 5 10 12 27 16 38 4 14 8 16 14 7 6 -10 11 -10 21 3 10 12
10 18 0 30 -7 8 -16 12 -21 9 -5 -3 -12 2 -16 12 -4 10 0 20 10 26 10 5 17 15
17 23 0 10 -5 11 -25 2 -18 -9 -25 -20 -25 -40 0 -25 -3 -27 -22 -21 -21 6
-21 6 -5 -10 19 -19 18 -109 -2 -129 -6 -6 -12 -22 -12 -36 -1 -17 -3 -20 -6
-8 -5 20 -7 21 -34 5 -17 -10 -23 -10 -26 0 -3 6 -11 12 -18 12 -7 0 -16 7
-19 16 -6 15 -9 14 -31 -6 l-24 -22 6 23 c3 13 10 29 14 35 5 6 6 14 2 17 -14
14 -23 6 -23 -20 0 -37 -13 -55 -33 -47 -9 3 -14 10 -11 15 3 5 -5 9 -16 9
-16 0 -20 4 -16 16 3 8 2 23 -3 33 -7 13 -5 20 10 29 11 7 24 10 29 7 11 -7
25 59 15 74 -3 6 1 14 9 17 25 10 19 24 -10 24 -19 0 -28 -7 -37 -30 -7 -18
-19 -30 -29 -30 -12 0 -18 -8 -18 -24 0 -27 -28 -43 -36 -21 -4 8 -4 22 0 30
3 8 1 15 -3 15 -16 0 -20 -28 -10 -62 10 -35 55 -90 82 -101 13 -5 14 -10 4
-31 -16 -34 -26 -33 -24 1 2 23 -3 28 -28 33 -23 4 -31 12 -35 34 -5 28 -5 28
-23 8 -13 -14 -16 -28 -11 -46 4 -16 2 -26 -5 -26 -16 0 3 -42 34 -76 15 -16
22 -30 16 -32 -21 -7 -11 -22 17 -23 20 -1 22 -2 7 -6 -11 -3 -26 -10 -32 -15
-15 -12 -18 -52 -4 -44 5 4 4 -5 -2 -19 -8 -17 -13 -20 -15 -10 -6 27 -22 16
-22 -15 0 -16 5 -30 10 -30 6 0 10 -7 10 -16 0 -11 -5 -14 -16 -10 -9 3 -18 6
-20 6 -2 0 -4 10 -4 23 -1 21 -1 21 -12 3 -8 -15 -7 -21 6 -28 9 -5 16 -16 16
-23 0 -21 -18 -19 -22 2 -2 11 -10 2 -23 -25 -20 -43 -35 -54 -35 -27 0 8 -4
15 -10 15 -5 0 -10 -5 -10 -11 0 -5 -5 -7 -11 -3 -8 5 -8 1 0 -14 9 -17 7 -21
-16 -27 -14 -3 -29 -2 -32 3 -3 5 -16 12 -28 16 -18 6 -20 4 -16 -14 4 -14 1
-20 -11 -20 -9 0 -16 7 -16 15 0 23 -19 18 -30 -8 -5 -12 -9 -16 -9 -9 -1 13
-47 7 -64 -8 -5 -4 -29 -3 -55 2 -51 9 -86 3 -63 -11 17 -11 -107 -6 -133 5
-13 5 -17 4 -13 -3 4 -6 -8 -13 -31 -17 -21 -3 -38 -1 -40 4 -2 6 -15 10 -28
10 -14 0 -22 -4 -19 -10 8 -13 -18 -13 -69 1 -41 11 -55 16 -109 38 -36 14
-44 14 -29 -1 21 -21 13 -28 -28 -28 -29 0 -43 5 -52 20 -7 11 -20 20 -28 20
-9 0 -21 5 -28 12 -9 9 -12 9 -12 0 0 -10 -5 -10 -20 -2 -11 6 -20 8 -20 5 0
-9 -62 36 -76 54 -6 8 -20 12 -31 9 -13 -4 -27 2 -37 13 -9 11 -26 19 -38 19
-12 0 -18 3 -15 6 8 8 -38 64 -64 79 -11 5 -39 25 -64 43 -66 49 -55 24 17
-39 34 -30 74 -65 88 -78 28 -27 119 -97 158 -123 14 -9 42 -35 62 -57 20 -22
48 -43 63 -46 54 -14 153 -135 100 -123 -10 3 -31 -2 -47 -10 -20 -10 -31 -11
-39 -3 -14 14 -30 14 -21 0 3 -6 0 -15 -7 -20 -9 -6 6 -7 39 -3 34 4 52 3 52
-4 0 -6 -8 -12 -17 -14 -12 -2 -2 -11 30 -27 50 -24 59 -39 13 -21 -54 20 -66
3 -13 -19 25 -11 28 -15 14 -18 -10 -3 -29 3 -42 11 -14 9 -25 12 -25 6 0 -5
-7 -10 -15 -10 -8 0 -17 14 -21 34 -5 27 -10 34 -27 33 -12 -1 -27 -8 -34 -17
-10 -13 -12 -13 -18 3 -4 9 -13 17 -21 17 -8 0 -23 9 -34 20 -11 11 -28 20
-38 20 -11 0 -27 9 -37 20 -10 11 -24 20 -32 20 -8 0 -24 10 -36 23 -12 13
-40 36 -62 52 -22 16 -52 40 -67 54 -27 24 -28 24 -28 4 0 -12 10 -47 22 -80
20 -51 44 -79 188 -224 152 -153 279 -259 310 -259 7 0 37 -16 66 -35 30 -20
82 -50 116 -67 121 -59 201 -136 238 -230 29 -73 33 -98 14 -98 -8 0 -14 -5
-14 -11 0 -7 10 -9 24 -5 20 5 27 1 40 -24 13 -28 13 -31 -4 -40 -10 -6 -26
-10 -35 -10 -9 0 -13 -5 -10 -10 6 -10 22 -8 61 7 10 4 64 -68 64 -86 0 -5 -9
-11 -21 -14 -17 -4 -19 -10 -13 -29 18 -57 55 -83 82 -56 6 6 15 8 19 4 4 -4
-3 -16 -17 -26 -28 -22 -24 -25 14 -10 22 8 27 5 45 -24 26 -42 27 -66 2 -66
-30 0 -31 -10 -5 -67 17 -39 28 -53 43 -53 12 0 21 -5 21 -11 0 -5 -5 -7 -12
-3 -8 5 -9 2 -4 -12 4 -10 17 -48 29 -83 15 -48 28 -68 49 -80 15 -9 28 -20
28 -24 0 -5 4 -6 8 -3 4 2 9 -11 10 -31 2 -20 7 -43 12 -52 9 -16 9 -16 42 69
21 51 37 75 53 75 16 0 35 21 35 39 0 6 -7 1 -15 -10 -29 -38 -15 8 25 84 46
88 58 105 83 118 10 6 32 34 49 64 28 49 29 53 9 47 -21 -5 -21 -5 -2 22 19
27 18 72 -4 125 -7 15 -5 17 13 11 27 -8 27 1 1 45 -26 43 -40 52 -56 38 -15
-12 -41 7 -76 56 -18 26 -19 29 -3 23 10 -4 15 -3 11 3 -3 6 2 10 11 10 10 0
14 3 11 7 -4 3 -20 6 -37 5 -38 -1 -71 38 -43 50 11 5 5 6 -14 2 -28 -5 -32
-2 -42 28 -13 40 -24 129 -22 182 2 62 41 119 100 145 27 11 55 21 61 21 13 0
191 99 205 115 33 35 55 47 68 37 10 -9 21 -1 50 37 20 26 37 53 37 58 0 13
70 117 82 121 4 2 6 8 3 13 -3 5 17 47 45 94 27 47 50 92 50 100 0 8 8 20 18
27 18 14 28 58 13 58 -5 0 -8 8 -6 18 12 60 16 72 26 72 6 0 10 -20 9 -47 -1
-27 -1 -66 0 -88 1 -36 2 -38 11 -16 5 14 7 50 3 80 -3 31 -1 67 4 81 8 20 11
13 20 -49 7 -47 18 -81 30 -95 56 -60 95 -213 74 -285 -15 -50 -15 -98 0 -103
7 -3 13 -18 14 -34 1 -16 3 -33 3 -39 1 -5 6 -3 11 5 16 24 5 -37 -19 -107
-12 -34 -21 -68 -21 -75 0 -17 17 3 23 27 4 16 5 14 6 -6 1 -18 8 -28 21 -32
11 -3 20 -10 20 -17 0 -6 -4 -9 -9 -6 -4 3 -9 -56 -10 -131 -1 -75 -5 -141 -8
-147 -3 -5 -8 -41 -9 -80 -2 -39 -8 -98 -14 -131 -12 -64 -8 -344 5 -365 4 -6
16 -10 26 -7 12 3 19 0 19 -8 0 -7 6 -16 12 -18 10 -4 10 -6 1 -6 -7 -1 -13
-6 -13 -12 0 -6 7 -8 16 -5 25 10 5 -13 -26 -29 -27 -14 -28 -16 -23 -77 5
-73 15 -88 43 -70 21 13 27 3 9 -15 -7 -7 -8 -13 0 -17 6 -4 2 -16 -12 -32
-15 -18 -22 -39 -22 -70 0 -24 3 -44 8 -44 4 0 5 -5 1 -12 -4 -7 -3 -8 4 -4 7
4 12 3 12 -3 0 -5 -5 -11 -11 -13 -7 -2 -10 -10 -8 -17 7 -19 58 36 56 59 -1
10 -6 16 -12 12 -7 -4 -7 -1 1 9 6 9 9 68 7 159 -2 80 -3 186 -2 235 0 50 -1
97 -2 105 -1 8 -3 56 -5 105 -2 50 -6 118 -10 153 -6 56 -5 65 15 83 11 11 21
23 21 26 0 3 -8 -1 -18 -10 -10 -10 -22 -17 -25 -17 -11 0 0 49 14 66 9 12 9
13 -3 9 -12 -5 -17 3 -22 28 -7 37 1 70 15 61 14 -8 36 58 30 94 -7 36 -24 44
-29 12 -6 -34 -19 -22 -20 18 -3 54 7 92 22 86 9 -3 16 6 20 27 11 57 25 19
29 -81 3 -52 8 -103 12 -112 4 -10 5 -38 3 -63 -2 -25 0 -45 4 -45 13 0 9 -45
-4 -59 -8 -9 -9 -12 -1 -7 12 6 21 -45 23 -136 0 -25 3 -57 6 -70 3 -13 7 -63
10 -113 3 -49 7 -112 11 -139 4 -35 1 -51 -8 -57 -10 -6 -11 -9 -1 -9 6 0 12
-7 12 -15 0 -8 -4 -15 -10 -15 -13 0 -7 -77 8 -92 7 -7 12 -31 12 -55 0 -38
-3 -43 -22 -44 l-23 0 23 -11 c15 -8 22 -20 22 -40 0 -22 -5 -28 -22 -29 l-23
0 23 -11 c18 -9 22 -19 22 -60 0 -26 -4 -48 -9 -48 -5 0 -11 -16 -13 -35 l-4
-35 968 0 968 0 0 3445 0 3445 -3445 0 -3445 0 0 -1929z m3560 1369 c0 -5 -5
-10 -11 -10 -5 0 -7 5 -4 10 3 6 8 10 11 10 2 0 4 -4 4 -10z m-930 -84 c0 -3
-4 -8 -10 -11 -5 -3 -10 -1 -10 4 0 6 5 11 10 11 6 0 10 -2 10 -4z m3284 -102
c21 -41 36 -77 34 -80 -9 -8 -39 8 -35 20 2 6 -7 22 -20 36 -13 14 -22 33 -19
42 2 10 0 21 -5 24 -5 3 -9 12 -9 20 0 31 18 11 54 -62z m144 -142 c4 -36 -13
-48 -53 -38 -47 12 -20 79 30 73 15 -1 21 -11 23 -35z m-3578 -106 c0 -3 -20
-18 -44 -35 -25 -16 -43 -24 -40 -17 3 7 22 22 42 34 40 23 42 24 42 18z
m-110 -138 c-14 -5 -40 -17 -59 -24 -18 -8 -35 -13 -38 -11 -6 7 41 35 68 40
43 8 55 6 29 -5z m-40 -39 c0 -5 -4 -7 -10 -4 -5 3 -10 3 -10 -2 -1 -15 -25
-40 -47 -47 -17 -5 -21 -3 -18 11 2 10 4 20 4 23 1 3 5 -1 9 -8 6 -9 14 -6 32
13 25 26 40 32 40 14z m4344 -126 c3 -24 2 -43 -3 -43 -11 0 -21 36 -21 80 1
45 15 22 24 -37z m-754 38 c0 -13 -22 -29 -53 -36 -35 -9 -35 6 1 27 30 19 52
23 52 9z m-3710 -41 c0 -5 -5 -10 -11 -10 -5 0 -7 5 -4 10 3 6 8 10 11 10 2 0
4 -4 4 -10z m2690 -55 c6 -30 10 -67 8 -82 l-4 -28 -12 28 c-7 16 -15 53 -18
83 -9 72 11 72 26 -1z m-2550 41 c0 -2 -8 -10 -17 -17 -16 -13 -17 -12 -4 4
13 16 21 21 21 13z m-160 -89 c0 -2 -10 -12 -22 -23 l-23 -19 19 23 c18 21 26
27 26 19z m3996 -40 c-11 -56 -77 -112 -76 -64 1 16 70 110 77 103 3 -3 3 -20
-1 -39z m518 -72 c4 -33 13 -94 21 -135 19 -109 40 -333 32 -354 -6 -14 -10
-16 -21 -7 -15 12 -22 52 -31 166 -3 39 -8 93 -12 120 -9 73 -17 262 -14 295
4 27 18 -22 25 -85z m-4687 3 c-1 -22 -27 -60 -27 -40 0 5 3 12 8 16 4 4 8 12
8 17 1 5 2 14 3 19 2 20 10 9 8 -12z m3492 -25 c-7 -10 -15 -20 -16 -22 -2 -2
-3 5 -3 17 0 14 6 22 16 22 14 0 15 -3 3 -17z m-3439 -23 c-12 -16 -24 -30
-26 -30 -7 0 5 20 24 43 24 27 25 20 2 -13z m3660 -218 c0 -14 -13 -9 -42 16
-29 24 -21 35 12 15 17 -9 30 -23 30 -31z m-315 8 c3 -5 -1 -10 -10 -10 -11 0
-15 -5 -11 -15 9 -24 -11 -65 -32 -65 -25 0 -30 6 -25 34 9 46 61 83 78 56z
m-1275 -140 c0 -5 -4 -10 -10 -10 -5 0 -10 5 -10 10 0 6 5 10 10 10 6 0 10 -4
10 -10z m1563 -88 c-6 -10 -16 -16 -22 -14 -6 1 -11 -8 -11 -20 0 -19 -2 -20
-10 -8 -14 22 -12 31 11 70 22 35 22 35 32 12 8 -17 8 -29 0 -40z m-1553 13
c0 -8 -4 -15 -10 -15 -5 0 -10 7 -10 15 0 8 5 15 10 15 6 0 10 -7 10 -15z m40
-162 c0 -6 6 -13 12 -15 8 -3 1 -12 -15 -22 -16 -11 -34 -15 -44 -11 -17 6
-17 7 1 20 10 8 15 19 11 25 -5 8 -10 9 -14 2 -3 -6 -17 -12 -31 -15 -14 -2
-20 -2 -13 0 7 2 14 12 17 21 9 27 48 41 63 22 7 -8 13 -20 13 -27z m-2417
-24 l22 -21 -22 11 c-12 6 -25 16 -28 21 -11 17 5 11 28 -11z m2474 -71 c-3
-8 -6 -5 -6 6 -1 11 2 17 5 13 3 -3 4 -12 1 -19z m0 -154 c-3 -3 -12 -4 -19
-1 -8 3 -5 6 6 6 11 1 17 -2 13 -5z m-2287 -29 c0 -14 -4 -25 -9 -25 -4 0 -6
11 -3 25 2 14 6 25 8 25 2 0 4 -11 4 -25z m-262 -37 c-5 -15 -55 -25 -158 -32
-62 -4 -68 -3 -35 5 22 5 49 13 60 19 20 9 57 16 108 19 19 0 27 -3 25 -11z
m2502 -173 c0 -3 -10 -10 -22 -15 -21 -8 -20 -9 9 -9 17 -1 35 4 38 9 3 6 13
10 22 10 12 0 10 -5 -8 -21 -14 -12 -32 -18 -44 -15 -11 3 -36 9 -55 13 -28 7
-31 10 -17 16 11 4 23 5 27 2 5 -3 11 -1 15 5 6 10 35 14 35 5z m-2380 -13 c0
-5 -15 -16 -34 -24 -18 -9 -50 -31 -70 -49 -45 -39 -57 -33 -20 10 37 45 124
89 124 63z m2247 2 c-3 -3 -12 -4 -19 -1 -8 3 -5 6 6 6 11 1 17 -2 13 -5z
m238 -35 c11 -16 -1 -22 -30 -15 -14 4 -23 11 -20 16 8 13 42 13 50 -1z m65
-23 c0 -8 7 -16 15 -20 8 -3 15 -10 15 -16 0 -6 -11 -3 -25 6 -25 16 -34 44
-15 44 6 0 10 -6 10 -14z m659 -117 c9 -40 9 -77 -1 -151 -15 -122 -28 -116
-16 7 9 94 2 201 -13 211 -5 3 -9 13 -9 22 0 29 27 -32 39 -89z m-1239 81 c0
-5 -5 -10 -11 -10 -5 0 -7 5 -4 10 3 6 8 10 11 10 2 0 4 -4 4 -10z m-95 -10
c3 -5 1 -10 -4 -10 -6 0 -11 5 -11 10 0 6 2 10 4 10 3 0 8 -4 11 -10z m755
-16 c0 -16 -39 -44 -60 -43 -11 0 -12 2 -2 6 10 4 8 11 -10 30 -16 17 -18 22
-6 18 9 -4 25 -2 34 3 21 12 44 5 44 -14z m496 -15 c15 -41 18 -119 5 -119 -6
0 -9 -12 -8 -27 3 -39 -28 -43 -39 -6 -18 64 -5 198 18 191 7 -3 17 -20 24
-39z m-1170 -44 c-15 -39 -26 -55 -40 -55 -13 0 -17 5 -13 19 3 14 1 18 -11
14 -12 -5 -14 -1 -8 23 10 37 8 36 42 24 16 -6 25 -8 21 -4 -4 4 -2 13 4 21
24 28 26 11 5 -42z m704 35 c0 -5 -7 -10 -15 -10 -8 0 -15 5 -15 10 0 6 7 10
15 10 8 0 15 -4 15 -10z m110 -61 c0 -12 -22 -11 -40 2 -11 8 -12 12 -2 16 14
5 17 33 3 33 -5 0 -11 -5 -13 -12 -3 -9 -6 -9 -12 0 -5 8 1 15 16 21 20 7 25
4 35 -22 7 -16 13 -33 13 -38z m220 26 c0 -13 -4 -27 -10 -30 -6 -4 -10 8 -10
30 0 22 4 34 10 30 6 -3 10 -17 10 -30z m-880 -6 c0 -3 -11 -4 -25 -1 -24 4
-24 5 -8 17 17 13 32 5 33 -16z m670 -74 l0 -26 -30 23 c-16 12 -30 23 -30 25
0 2 14 3 30 3 25 0 30 -4 30 -25z m278 -41 c2 -1 -2 -12 -8 -24 -14 -26 -6
-38 14 -21 13 11 18 7 30 -23 8 -20 18 -52 22 -72 7 -38 -13 -151 -28 -160
-17 -11 -18 3 -3 39 17 40 14 90 -7 138 -11 25 -18 29 -43 27 -29 -3 -30 -2
-28 37 2 22 8 42 14 44 8 2 7 6 -1 11 -7 4 -9 13 -5 19 5 9 11 9 23 -1 10 -7
18 -13 20 -14z m-338 -29 c0 -8 -2 -15 -4 -15 -2 0 -6 7 -10 15 -3 8 -1 15 4
15 6 0 10 -7 10 -15z m60 1 c0 -8 -4 -18 -10 -21 -5 -3 -10 3 -10 14 0 12 5
21 10 21 6 0 10 -6 10 -14z m661 -4 c-14 -26 -41 -48 -41 -33 0 11 35 51 45
51 3 0 1 -8 -4 -18z m622 -65 l42 -4 -40 -1 c-47 -2 -71 10 -59 29 7 11 9 11
12 -3 2 -12 16 -18 45 -21z m257 10 c-3 -3 -50 -7 -105 -10 -55 -4 -89 -3 -75
2 26 8 188 15 180 8z m-1330 -98 c0 -11 -4 -17 -10 -14 -5 3 -10 15 -10 26 0
11 5 17 10 14 6 -3 10 -15 10 -26z m657 -10 c4 -23 -12 -40 -31 -33 -15 6 -15
8 -1 24 8 9 12 20 8 25 -5 4 -1 6 7 3 8 -3 16 -11 17 -19z m953 -26 c0 -12
-33 -43 -47 -43 -21 0 -15 26 10 38 26 13 37 14 37 5z m-1773 -55 c-3 -8 -6
-5 -6 6 -1 11 2 17 5 13 3 -3 4 -12 1 -19z m1077 8 c-6 -16 -55 -36 -85 -36
-29 0 -22 29 9 36 15 3 32 7 37 9 26 9 44 4 39 -9z m256 -10 c0 -11 -19 -15
-25 -6 -3 5 1 10 9 10 9 0 16 -2 16 -4z m-1343 -128 c-3 -8 -6 -5 -6 6 -1 11
2 17 5 13 3 -3 4 -12 1 -19z m243 -7 c0 -16 3 -43 7 -61 4 -24 3 -31 -5 -26
-7 4 -12 21 -12 37 0 26 -2 28 -19 20 -15 -8 -20 -7 -25 6 -11 27 3 53 30 53
20 0 24 -5 24 -29z m1087 -127 c-3 -3 -12 -4 -19 -1 -8 3 -5 6 6 6 11 1 17 -2
13 -5z m-2257 -39 c0 -2 -6 -5 -13 -8 -8 -3 -14 1 -14 8 0 7 6 11 14 8 7 -3
13 -6 13 -8z m-104 -154 c-4 -5 0 -11 6 -14 10 -4 11 -7 1 -18 -11 -11 -13
-10 -13 4 0 9 -6 17 -12 17 -9 0 -8 4 2 10 19 12 23 12 16 1z m-46 -9 c0 -13
-12 -22 -22 -16 -10 6 -1 24 13 24 5 0 9 -4 9 -8z m1680 -16 c0 -2 3 -11 6
-20 4 -11 0 -16 -14 -16 -11 0 -22 -7 -26 -15 -3 -8 -10 -15 -16 -15 -6 0 -2
10 10 22 23 25 25 34 8 41 -7 3 -3 6 10 6 12 1 22 -1 22 -3z m-1440 -25 c0 -4
-13 -6 -30 -3 -16 2 -30 7 -30 11 0 4 14 6 30 3 17 -2 30 -7 30 -11z m-392
-300 c3 -8 -1 -12 -9 -9 -7 2 -15 10 -17 17 -3 8 1 12 9 9 7 -2 15 -10 17 -17z
m132 11 c0 -5 -16 -9 -35 -10 -20 -1 -40 -4 -44 -7 -5 -3 -11 2 -15 10 -4 12
4 15 44 15 28 0 50 -4 50 -8z m1994 2 c23 -9 20 -51 -3 -57 -34 -8 -53 27 -29
51 14 14 12 14 32 6z m-560 -29 c-9 -14 -19 -23 -22 -20 -5 4 26 45 35 45 2 0
-4 -11 -13 -25z m-1290 -96 c-4 -7 -23 -9 -48 -6 -22 3 -33 3 -23 0 9 -2 17
-9 17 -14 0 -11 -11 -11 -29 0 -24 15 -1 31 45 31 31 0 43 -4 38 -11z m-304
-9 c0 -5 -4 -10 -9 -10 -6 0 -13 5 -16 10 -3 6 1 10 9 10 9 0 16 -4 16 -10z
m45 0 c-3 -5 -10 -10 -16 -10 -5 0 -9 5 -9 10 0 6 7 10 16 10 8 0 12 -4 9 -10z
m2130 -40 c-8 -13 -35 0 -35 16 0 12 4 12 20 4 11 -6 18 -15 15 -20z m-1805
-40 c0 -5 -4 -10 -10 -10 -5 0 -10 5 -10 10 0 6 5 10 10 10 6 0 10 -4 10 -10z
m652 -158 c6 -22 -17 -58 -26 -43 -8 12 3 61 14 61 4 0 10 -8 12 -18z m-384
-44 c-3 -7 -11 -13 -18 -13 -7 0 -15 6 -17 13 -3 7 4 12 17 12 13 0 20 -5 18
-12z m-3 -56 c-3 -3 -11 0 -18 7 -9 10 -8 11 6 5 10 -3 15 -9 12 -12z m615
-117 c12 -19 20 -43 18 -52 -3 -14 -9 -10 -26 17 -19 31 -29 70 -18 70 2 0 14
-16 26 -35z m-560 -79 c0 -5 -7 -3 -15 4 -8 7 -15 20 -15 28 0 13 3 12 15 -4
8 -10 15 -23 15 -28z m-69 -59 c-10 -9 -11 -8 -5 6 3 10 9 15 12 12 3 -3 0
-11 -7 -18z m-34 -63 c-3 -3 -12 -4 -19 -1 -8 3 -5 6 6 6 11 1 17 -2 13 -5z
m1684 -30 c11 -14 10 -18 -6 -30 -16 -12 -21 -12 -34 0 -12 12 -12 18 -1 30
16 20 24 20 41 0z m-1346 -25 c4 -6 -1 -17 -11 -25 -18 -13 -18 -14 4 -20 12
-3 22 -10 22 -15 0 -12 -27 -11 -52 2 -21 11 -41 3 -21 -9 23 -15 20 -61 -7
-90 -12 -12 -18 -22 -15 -22 3 0 3 -5 -1 -11 -4 -8 -9 -8 -17 0 -14 14 -60 15
-52 1 3 -5 -1 -10 -9 -10 -9 0 -16 -5 -16 -11 0 -7 11 -9 30 -5 17 3 30 1 30
-4 0 -6 -4 -10 -10 -10 -5 0 -10 -9 -10 -21 0 -11 -5 -17 -10 -14 -6 4 -7 11
-4 17 5 7 -6 9 -32 5 -21 -3 -32 -3 -23 -1 10 3 16 17 17 35 1 25 -2 29 -19
24 -11 -4 -19 -2 -19 4 0 6 9 11 20 11 10 0 23 8 28 17 8 13 22 16 61 14 62
-2 67 12 9 26 -39 10 -40 11 -13 13 l30 2 -28 12 -28 12 42 14 c23 8 51 27 62
42 22 30 32 34 42 17z m-160 -79 c3 -5 1 -10 -4 -10 -6 0 -11 5 -11 10 0 6 2
10 4 10 3 0 8 -4 11 -10z m-1051 -109 c3 -5 -1 -11 -9 -15 -15 -6 -29 7 -18
18 9 9 21 8 27 -3z m976 -1 c0 -5 -4 -10 -10 -10 -5 0 -10 5 -10 10 0 6 5 10
10 10 6 0 10 -4 10 -10z m-410 -31 c0 -5 5 -7 10 -4 6 3 10 1 10 -4 0 -6 7
-11 16 -11 8 0 13 4 10 9 -3 5 1 11 8 14 11 4 14 -1 13 -20 -1 -14 4 -28 12
-31 8 -2 11 0 7 6 -3 5 1 13 9 16 12 4 14 0 9 -22 -4 -15 -11 -32 -16 -39 -6
-7 -3 -15 9 -22 16 -9 15 -10 -7 -11 -24 -1 -24 -1 -5 -15 11 -8 26 -19 32
-25 7 -6 24 -8 38 -4 23 6 26 4 23 -19 -5 -34 -8 -36 -58 -45 -24 -4 -46 -14
-48 -21 -3 -10 1 -12 17 -8 11 3 21 1 21 -4 0 -5 -15 -10 -32 -10 l-33 -1 30
-7 c28 -6 29 -7 10 -19 -20 -12 -20 -12 0 -24 18 -11 17 -12 -15 -24 -22 -8
-28 -13 -16 -13 19 -1 19 -2 -2 -21 -24 -22 -42 -26 -42 -8 0 7 -15 -2 -33
-20 -18 -18 -38 -32 -45 -32 -7 0 -12 -4 -12 -10 0 -5 9 -10 20 -10 27 0 25
-26 -2 -44 -32 -19 -78 -29 -78 -16 0 6 -10 9 -22 7 -13 -2 -17 -2 -10 0 18 6
15 33 -4 33 -9 0 -25 10 -35 21 -16 18 -21 20 -34 9 -9 -7 -18 -10 -22 -6 -4
3 5 16 19 27 l25 21 -24 24 c-13 13 -31 24 -40 24 -15 0 -14 -2 2 -13 10 -8
15 -19 11 -25 -10 -17 -26 -15 -26 3 0 17 -9 19 -30 5 -9 -6 -19 -5 -28 3 -8
6 -27 10 -42 9 -16 -2 -31 1 -35 7 -3 6 1 11 10 11 9 0 13 5 9 11 -3 6 -19 9
-35 5 -31 -6 -37 2 -17 22 9 9 6 12 -16 12 -43 0 -64 16 -59 43 4 20 -1 25
-27 33 -17 5 -30 14 -28 19 5 16 40 7 60 -15 20 -21 82 -28 93 -10 8 13 25 13
25 -1 0 -12 25 -39 35 -39 4 0 4 11 1 24 -7 28 12 39 50 30 18 -5 24 -2 24 10
0 9 -8 16 -17 16 -15 1 -16 2 -3 9 24 15 73 17 77 4 2 -6 -8 -13 -24 -15 -25
-3 -22 -5 17 -14 40 -9 45 -8 48 8 4 20 19 23 42 8 13 -9 13 -11 0 -19 -8 -6
-12 -13 -8 -16 3 -3 19 6 36 20 16 14 42 25 58 25 40 0 19 14 -28 19 -5 1 -7
7 -5 14 1 8 -11 11 -40 9 -23 -1 -44 2 -48 8 -4 6 12 10 42 10 46 0 47 1 25
16 -13 9 -22 26 -22 40 0 22 -4 25 -30 22 -16 -2 -30 2 -31 7 0 6 13 9 30 7
18 -2 39 2 47 8 10 9 14 9 14 1 0 -16 83 -14 106 4 11 8 14 15 7 15 -18 0 -16
20 2 20 8 0 15 -5 15 -11z m-520 -9 c0 -5 -4 -10 -10 -10 -5 0 -10 5 -10 10 0
6 5 10 10 10 6 0 10 -4 10 -10z m3424 -12 c8 -32 7 -38 -5 -38 -5 0 -7 5 -4
10 3 6 1 10 -4 10 -6 0 -11 9 -11 20 0 27 16 25 24 -2z m-2959 2 c-3 -5 -15
-10 -26 -10 -11 0 -17 5 -14 10 3 6 15 10 26 10 11 0 17 -4 14 -10z m425 -5
c0 -8 -4 -15 -10 -15 -5 0 -10 7 -10 15 0 8 5 15 10 15 6 0 10 -7 10 -15z m48
4 c-2 -6 -8 -10 -13 -10 -5 0 -11 4 -13 10 -2 6 4 11 13 11 9 0 15 -5 13 -11z
m-232 -23 c-5 -37 -66 -66 -66 -31 0 8 9 15 20 15 11 0 23 7 26 15 8 19 23 20
20 1z m149 -16 c-3 -5 -10 -10 -16 -10 -5 0 -9 5 -9 10 0 6 7 10 16 10 8 0 12
-4 9 -10z m-617 -18 c6 -18 -15 -14 -22 4 -4 10 -1 14 6 12 6 -2 14 -10 16
-16z m712 14 c0 -8 -51 -13 -56 -5 -3 5 9 9 25 9 17 0 31 -2 31 -4z m-166 -23
c-16 -17 -16 -18 7 -24 23 -7 23 -7 -5 -8 -20 -1 -27 -5 -23 -15 6 -14 -39
-64 -48 -54 -3 3 4 22 16 42 11 20 16 36 11 36 -6 0 -19 3 -29 7 -15 6 -16 5
-5 -9 16 -21 5 -26 -33 -17 -16 3 -23 7 -15 8 9 0 22 10 29 20 11 15 18 17 32
8 13 -8 23 -7 41 6 31 21 44 21 22 0z m-589 -35 c-19 -11 -30 -5 -21 11 4 6
14 7 22 4 15 -5 14 -7 -1 -15z m-281 -36 c-3 -20 -10 -41 -14 -45 -4 -5 -5 3
-3 17 4 21 0 26 -21 32 -33 8 -34 24 -1 24 14 0 25 5 25 11 0 5 5 7 10 4 6 -4
8 -22 4 -43z m68 26 c0 -13 1 -30 0 -39 -1 -16 36 -34 47 -24 2 3 -2 5 -9 5
-9 0 -7 7 7 19 20 19 63 19 63 0 0 -5 -11 -7 -25 -3 -28 7 -34 -10 -7 -22 12
-5 5 -9 -28 -14 -25 -4 -46 -3 -48 1 -2 5 -12 9 -22 9 -15 0 -18 7 -17 38 3
50 35 76 39 30z m149 13 c-7 -5 -10 -14 -7 -20 10 -15 -5 -13 -27 3 -18 14
-18 14 0 19 10 3 25 5 33 6 12 1 13 -1 1 -8z m732 2 c-7 -2 -19 -2 -25 0 -7 3
-2 5 12 5 14 0 19 -2 13 -5z m-1052 -18 c-1 -15 -24 -12 -29 3 -3 9 2 13 12
10 10 -1 17 -7 17 -13z m479 -15 c-24 -15 -37 -11 -16 5 11 8 22 12 25 9 3 -3
-1 -9 -9 -14z m505 10 c3 -5 1 -10 -4 -10 -6 0 -11 5 -11 10 0 6 2 10 4 10 3
0 8 -4 11 -10z m-632 -25 c7 -16 -8 -29 -23 -20 -10 6 -2 35 10 35 4 0 10 -7
13 -15z m-33 -45 c0 -5 -7 -10 -15 -10 -8 0 -15 5 -15 10 0 6 7 10 15 10 8 0
15 -4 15 -10z m578 -38 c2 -7 -2 -10 -12 -6 -9 3 -16 11 -16 16 0 13 23 5 28
-10z m-2532 -28 c11 -2 21 -10 21 -19 0 -18 -48 -21 -78 -4 -38 20 -3 34 57
23z m2524 -4 c0 -5 -7 -10 -15 -10 -8 0 -15 5 -15 10 0 6 7 10 15 10 8 0 15
-4 15 -10z m-60 -30 c0 -5 -4 -10 -10 -10 -5 0 -10 5 -10 10 0 6 5 10 10 10 6
0 10 -4 10 -10z m1107 -72 c-3 -8 -6 -5 -6 6 -1 11 2 17 5 13 3 -3 4 -12 1
-19z m-1547 -143 c9 -10 9 -15 1 -15 -6 0 -11 5 -11 11 0 6 -7 8 -16 5 -8 -3
-12 -2 -9 4 9 14 21 12 35 -5z m770 -445 c0 -5 -2 -10 -4 -10 -3 0 -8 5 -11
10 -3 6 -1 10 4 10 6 0 11 -4 11 -10z m-1621 -158 c1 -7 -3 -10 -9 -7 -5 3
-10 21 -9 38 1 31 1 31 9 7 4 -14 8 -31 9 -38z m1251 -262 c0 -11 -2 -20 -4
-20 -2 0 -6 9 -9 20 -3 11 -1 20 4 20 5 0 9 -9 9 -20z m1110 -240 c-24 -15
-36 -11 -14 4 10 8 21 12 24 10 2 -3 -2 -9 -10 -14z m20 -72 c0 -13 -23 -5
-28 10 -2 7 2 10 12 6 9 -3 16 -11 16 -16z"/>
<path d="M3606 1751 c-3 -5 12 -8 34 -7 21 0 33 4 27 8 -16 10 -55 10 -61 -1z"/>
<path d="M3533 1743 c-7 -2 -13 -8 -13 -12 0 -11 49 -1 56 10 5 9 -22 11 -43
2z"/>
<path d="M3586 1721 c-4 -7 -5 -15 -2 -18 9 -9 19 4 14 18 -4 11 -6 11 -12 0z"/>
<path d="M3705 1709 c-4 -6 -5 -13 -2 -16 7 -7 27 6 27 18 0 12 -17 12 -25 -2z"/>
<path d="M3573 1683 c9 -2 25 -2 35 0 9 3 1 5 -18 5 -19 0 -27 -2 -17 -5z"/>
<path d="M3600 1649 c0 -5 5 -7 10 -4 6 3 10 8 10 11 0 2 -4 4 -10 4 -5 0 -10
-5 -10 -11z"/>
<path d="M3673 1641 c-11 -17 -9 -18 33 -13 27 3 44 1 44 -6 0 -6 -6 -13 -12
-15 -8 -3 -6 -6 5 -6 24 -1 22 35 -2 49 -30 15 -55 12 -68 -9z"/>
<path d="M3535 1570 c11 -5 31 -9 45 -9 23 0 23 1 5 9 -11 5 -31 9 -45 9 -23
0 -23 -1 -5 -9z"/>
<path d="M3362 1558 c2 -6 15 -15 28 -20 23 -9 23 -8 5 12 -20 22 -39 27 -33
8z"/>
<path d="M3290 1537 c0 -7 6 -21 13 -31 11 -15 21 -17 56 -11 34 6 40 9 30 21
-6 8 -24 14 -40 14 -16 0 -29 5 -29 10 0 6 -7 10 -15 10 -8 0 -15 -6 -15 -13z"/>
<path d="M3220 1536 c0 -2 7 -7 16 -10 8 -3 12 -2 9 4 -6 10 -25 14 -25 6z"/>
<path d="M3148 1523 c7 -3 16 -2 19 1 4 3 -2 6 -13 5 -11 0 -14 -3 -6 -6z"/>
<path d="M3441 1444 c6 -8 18 -14 26 -14 20 0 8 16 -17 23 -17 4 -19 3 -9 -9z"/>
<path d="M3310 1446 c0 -2 7 -6 15 -10 8 -3 15 -1 15 4 0 6 -7 10 -15 10 -8 0
-15 -2 -15 -4z"/>
<path d="M3458 1396 c-24 -18 -23 -23 8 -30 15 -4 35 -17 44 -29 10 -12 22
-19 26 -15 4 4 -4 16 -16 26 -27 22 -22 56 6 45 12 -4 15 -3 10 5 -10 16 -57
15 -78 -2z"/>
<path d="M4080 4955 c0 -8 2 -15 4 -15 2 0 6 7 10 15 3 8 1 15 -4 15 -6 0 -10
-7 -10 -15z"/>
<path d="M4175 4540 c-3 -5 3 -10 14 -10 12 0 21 5 21 10 0 6 -6 10 -14 10 -8
0 -18 -4 -21 -10z"/>
<path d="M2725 4288 c-125 -8 -222 -31 -248 -59 -10 -10 -24 -19 -32 -19 -7 0
-17 -9 -20 -20 -3 -11 -11 -20 -17 -20 -6 0 -8 -11 -6 -25 3 -14 1 -25 -4 -25
-4 0 -6 -11 -4 -25 3 -17 0 -25 -10 -25 -19 0 -18 -19 1 -26 24 -10 111 6 94
16 -7 5 -10 12 -6 17 4 4 17 2 27 -5 27 -17 32 -15 25 7 -5 16 2 19 57 26 35
5 79 8 98 6 19 -1 48 4 63 12 20 10 39 12 64 6 20 -4 49 -5 64 -2 15 3 35 0
46 -6 16 -10 16 -11 -7 -10 -14 1 -32 0 -40 -3 -41 -15 -130 -30 -145 -25 -9
4 -14 3 -10 -3 3 -6 -3 -10 -14 -10 -29 0 -112 -38 -136 -63 -29 -29 -47 -65
-40 -77 3 -6 0 -10 -8 -10 -22 0 -39 -24 -26 -37 8 -8 19 -6 40 4 45 22 80 27
166 23 34 -2 50 -7 47 -15 -3 -8 5 -10 26 -7 20 3 30 0 30 -8 0 -9 6 -8 18 3
10 10 22 14 25 10 4 -3 18 -1 31 7 14 7 35 10 47 7 12 -3 32 1 47 11 21 14 68
18 80 7 6 -6 -11 -35 -22 -35 -6 0 -17 -9 -24 -20 -19 -31 12 -26 43 8 l26 27
-6 -26 c-7 -27 15 -55 23 -31 2 7 8 10 13 6 5 -3 16 2 25 10 8 9 23 16 33 16
43 0 104 92 94 143 -6 28 -48 71 -79 79 -11 3 -26 -2 -33 -9 -10 -11 -15 -12
-21 -3 -4 6 -9 11 -11 9 -2 -1 -15 1 -27 5 l-24 8 27 14 c17 9 47 12 80 10 41
-3 55 0 59 11 9 23 7 26 -15 20 -19 -5 -20 -4 -5 12 21 23 21 51 0 51 -10 0
-14 6 -11 15 5 10 -4 16 -31 20 -20 4 -57 10 -82 15 -63 13 -224 17 -355 8z
m340 -148 c-3 -5 -13 -10 -21 -10 -8 0 -14 5 -14 10 0 6 9 10 21 10 11 0 17
-4 14 -10z m115 -70 c0 -5 7 -10 15 -10 8 0 15 -5 15 -11 0 -7 -9 -9 -22 -6
-23 6 -23 6 -3 -11 12 -10 21 -31 22 -52 1 -19 0 -28 -3 -20 -4 8 -27 36 -51
61 -43 45 -44 46 -17 41 19 -3 25 -1 20 7 -4 6 -1 11 8 11 9 0 16 -4 16 -10z
m-160 -60 c11 -11 20 -17 20 -14 0 3 6 2 13 -3 8 -5 2 -10 -18 -14 -64 -14
-72 -12 -67 21 5 35 24 38 52 10z m-262 -42 c16 -16 15 -29 -2 -22 -16 6 -30
34 -18 34 5 0 13 -5 20 -12z m412 -38 c0 -5 -12 -16 -28 -24 -22 -11 -31 -12
-45 -1 -30 22 -20 35 28 35 25 0 45 -4 45 -10z"/>
<path d="M1818 4003 c-21 -35 -23 -49 -23 -168 0 -97 4 -136 15 -155 8 -14 22
-54 31 -90 l15 -65 8 60 c5 37 3 71 -3 88 -15 38 -38 155 -39 191 0 16 8 38
18 49 10 10 16 25 13 33 -3 7 8 25 24 39 27 24 28 25 9 40 -30 23 -42 19 -68
-22z"/>
<path d="M3832 3800 c0 -14 2 -19 5 -12 2 6 2 18 0 25 -3 6 -5 1 -5 -13z"/>
<path d="M4225 3750 c17 -19 45 -27 45 -14 0 11 -34 33 -49 34 -11 0 -10 -5 4
-20z"/>
<path d="M3145 3530 c-8 -13 5 -13 25 0 13 8 13 10 -2 10 -9 0 -20 -4 -23 -10z"/>
<path d="M4487 3518 c6 -7 13 -25 17 -40 3 -16 13 -28 21 -28 18 0 18 0 0 37
-9 17 -23 34 -32 37 -12 5 -13 3 -6 -6z"/>
<path d="M2051 3494 c0 -11 3 -14 6 -6 3 7 2 16 -1 19 -3 4 -6 -2 -5 -13z"/>
<path d="M3110 3481 c0 -25 6 -27 13 -6 4 8 2 17 -3 20 -6 4 -10 -3 -10 -14z"/>
<path d="M3090 3407 c0 -31 5 -45 20 -55 21 -13 21 -8 4 76 -8 38 -24 24 -24
-21z"/>
<path d="M4500 3421 c0 -12 5 -21 10 -21 6 0 10 6 10 14 0 8 -4 18 -10 21 -5
3 -10 -3 -10 -14z"/>
<path d="M3055 3397 c-4 -10 -5 -21 -1 -24 10 -10 18 4 13 24 -4 17 -4 17 -12
0z"/>
<path d="M4031 3393 c17 -22 43 -43 47 -38 5 4 -44 55 -53 55 -4 0 -1 -8 6
-17z"/>
<path d="M2080 3374 c0 -8 5 -12 10 -9 6 3 10 10 10 16 0 5 -4 9 -10 9 -5 0
-10 -7 -10 -16z"/>
<path d="M4060 3161 c0 -6 5 -13 10 -16 6 -3 10 1 10 9 0 9 -4 16 -10 16 -5 0
-10 -4 -10 -9z"/>
<path d="M2912 3143 c-6 -3 -10 -9 -6 -14 3 -5 -2 -12 -11 -15 -14 -6 -14 -8
2 -20 24 -18 33 -17 33 4 0 10 5 23 11 29 12 12 -8 23 -29 16z"/>
<path d="M3520 3112 c0 -4 15 -7 33 -7 25 0 31 -4 29 -17 -2 -10 2 -18 8 -18
5 0 10 11 10 25 0 23 -4 25 -40 25 -22 0 -40 -3 -40 -8z"/>
<path d="M4515 3110 c-3 -5 1 -10 9 -10 9 0 16 5 16 10 0 6 -4 10 -9 10 -6 0
-13 -4 -16 -10z"/>
<path d="M3615 3080 c-3 -5 -2 -10 4 -10 5 0 13 5 16 10 3 6 2 10 -4 10 -5 0
-13 -4 -16 -10z"/>
<path d="M3493 3053 c12 -3 16 -11 12 -23 -5 -17 11 -38 21 -27 11 10 -17 57
-33 56 -17 -1 -17 -2 0 -6z"/>
<path d="M3820 3050 c0 -5 5 -10 10 -10 6 0 10 5 10 10 0 6 -4 10 -10 10 -5 0
-10 -4 -10 -10z"/>
<path d="M3880 3039 c0 -5 5 -7 10 -4 6 3 10 8 10 11 0 2 -4 4 -10 4 -5 0 -10
-5 -10 -11z"/>
<path d="M4600 3011 c0 -5 7 -12 16 -15 14 -5 15 -4 4 9 -14 17 -20 19 -20 6z"/>
<path d="M4495 2980 c-3 -5 1 -10 9 -10 9 0 16 5 16 10 0 6 -4 10 -9 10 -6 0
-13 -4 -16 -10z"/>
<path d="M4613 2955 c-29 -12 -29 -21 -1 -28 27 -7 31 -4 26 20 -2 15 -7 16
-25 8z"/>
<path d="M2968 2733 c6 -2 18 -2 25 0 6 3 1 5 -13 5 -14 0 -19 -2 -12 -5z"/>
<path d="M4430 2695 c0 -19 5 -35 10 -35 6 0 10 16 10 35 0 19 -4 35 -10 35
-5 0 -10 -16 -10 -35z"/>
<path d="M2928 2653 c7 -3 16 -2 19 1 4 3 -2 6 -13 5 -11 0 -14 -3 -6 -6z"/>
<path d="M3905 2570 c-3 -5 -1 -10 4 -10 6 0 11 5 11 10 0 6 -2 10 -4 10 -3 0
-8 -4 -11 -10z"/>
<path d="M4210 2545 c0 -8 5 -15 10 -15 6 0 10 7 10 15 0 8 -4 15 -10 15 -5 0
-10 -7 -10 -15z"/>
<path d="M4270 2533 c0 -5 5 -15 10 -23 8 -12 10 -11 10 8 0 12 -4 22 -10 22
-5 0 -10 -3 -10 -7z"/>
<path d="M3569 2485 c-3 -2 -32 -7 -64 -10 -61 -6 -87 -15 -43 -15 32 0 88
-19 88 -30 0 -5 9 -8 19 -7 11 0 17 6 14 14 -8 19 14 16 26 -4 6 -10 11 -13
11 -7 0 18 62 24 85 9 12 -7 30 -14 40 -17 11 -2 20 -8 21 -13 2 -27 18 -45
40 -45 29 0 32 20 4 27 -11 3 -20 9 -20 14 0 12 17 11 25 -1 4 -6 10 -8 15 -5
4 3 10 -4 13 -15 3 -11 13 -23 24 -27 10 -3 20 -10 23 -13 3 -4 17 -10 33 -14
31 -7 38 9 7 19 -24 8 -28 53 -5 61 12 5 13 10 4 20 -9 11 -8 18 1 29 13 16 6
35 -15 35 -9 0 -12 -6 -9 -15 7 -18 -14 -47 -27 -39 -5 3 -7 9 -4 14 8 13 -16
24 -47 22 -14 -1 -29 2 -33 8 -6 10 -217 15 -226 5z"/>
<path d="M3373 2463 c9 -2 23 -2 30 0 6 3 -1 5 -18 5 -16 0 -22 -2 -12 -5z"/>
<path d="M2435 2360 c3 -5 8 -10 11 -10 2 0 4 5 4 10 0 6 -5 10 -11 10 -5 0
-7 -4 -4 -10z"/>
<path d="M3865 2180 c-3 -5 1 -10 9 -10 9 0 16 5 16 10 0 6 -4 10 -9 10 -6 0
-13 -4 -16 -10z"/>
<path d="M3870 2135 c0 -8 5 -15 10 -15 6 0 10 7 10 15 0 8 -4 15 -10 15 -5 0
-10 -7 -10 -15z"/>
<path d="M3800 2130 c0 -5 7 -7 15 -4 8 4 15 8 15 10 0 2 -7 4 -15 4 -8 0 -15
-4 -15 -10z"/>
<path d="M2431 2054 c0 -11 3 -14 6 -6 3 7 2 16 -1 19 -3 4 -6 -2 -5 -13z"/>
<path d="M3197 2031 c-3 -14 -1 -18 9 -14 16 6 18 19 5 27 -5 3 -11 -3 -14
-13z"/>
<path d="M4661 2014 c0 -11 3 -14 6 -6 3 7 2 16 -1 19 -3 4 -6 -2 -5 -13z"/>
<path d="M4693 1945 c3 -62 0 -103 -10 -134 -8 -24 -12 -55 -8 -70 4 -19 3
-22 -5 -11 -8 13 -10 12 -11 -5 -1 -11 -2 -26 -1 -34 0 -8 -15 -33 -34 -55
-32 -37 -34 -44 -30 -91 l5 -50 -13 35 -13 35 1 -48 1 -48 32 35 c17 19 34 32
37 28 3 -3 6 12 6 32 0 21 6 52 14 69 18 43 33 86 41 121 3 17 14 35 22 41 14
11 15 20 5 70 -15 75 -15 98 0 89 9 -6 -22 54 -39 76 -2 2 -2 -36 0 -85z"/>
<path d="M4591 1874 c0 -11 3 -14 6 -6 3 7 2 16 -1 19 -3 4 -6 -2 -5 -13z"/>
<path d="M4553 1778 c-18 -48 -15 -70 3 -29 8 19 13 41 12 49 -2 8 -9 -1 -15
-20z"/>
<path d="M4582 1708 c-10 -30 -10 -31 3 -14 13 17 21 46 12 46 -1 0 -8 -15
-15 -32z"/>
<path d="M4461 1589 c-13 -17 -21 -33 -18 -35 3 -3 15 9 27 26 29 41 20 49 -9
9z"/>
<path d="M4740 1599 c0 -8 4 -28 9 -46 7 -25 6 -31 -4 -26 -8 2 -16 12 -18 21
-3 12 -5 11 -6 -5 0 -12 6 -29 15 -38 9 -8 13 -23 10 -32 -5 -13 -4 -14 9 -3
8 7 15 21 15 31 0 10 5 21 10 24 15 9 13 18 -15 55 -14 19 -25 27 -25 19z"/>
<path d="M4230 1528 c-30 -27 -49 -47 -42 -43 7 4 24 0 37 -9 22 -15 24 -14
49 18 14 19 22 37 18 40 -3 4 0 11 7 15 13 8 7 31 -7 31 -4 -1 -32 -24 -62
-52z"/>
<path d="M4463 1528 c-15 -20 -25 -38 -20 -38 3 0 12 11 21 25 17 26 16 35 -1
13z"/>
<path d="M4497 1464 c-14 -14 -59 -116 -53 -121 3 -4 6 1 6 10 0 10 5 17 10
17 6 0 10 -10 10 -22 0 -19 6 -14 31 23 22 35 28 53 23 73 -6 25 -15 32 -27
20z"/>
<path d="M4661 1427 c-17 -28 -18 -34 -5 -58 20 -40 27 -41 52 -5 19 28 20 36
9 59 -18 39 -33 40 -56 4z"/>
<path d="M4097 1420 c-14 -17 -14 -20 -2 -20 18 0 20 -16 3 -23 -10 -4 -10 -6
0 -6 7 -1 10 -5 7 -11 -3 -5 3 -10 13 -10 24 0 35 -23 19 -39 -9 -9 -8 -14 3
-22 13 -8 10 -14 -15 -35 -21 -18 -24 -24 -10 -19 52 19 53 18 65 -25 6 -24 9
-51 7 -61 -3 -11 0 -19 7 -19 14 0 46 -71 46 -103 0 -27 16 -54 26 -44 5 4 2
27 -4 50 -20 68 -37 150 -37 177 0 14 -2 27 -5 30 -3 3 -16 28 -29 56 -13 29
-34 63 -47 77 -38 41 -26 54 15 16 12 -12 25 -18 29 -14 4 4 -4 15 -18 26 -14
10 -30 23 -37 29 -16 13 -16 13 -36 -10z"/>
<path d="M4330 1398 c-13 -22 -18 -38 -11 -34 13 8 44 66 39 72 -3 2 -15 -15
-28 -38z"/>
<path d="M3967 1384 c-37 -20 -28 -30 10 -11 15 8 34 12 41 10 6 -3 12 0 12 6
0 15 -30 13 -63 -5z"/>
<path d="M4351 1327 c-13 -21 -12 -21 5 -5 10 10 16 20 13 22 -3 3 -11 -5 -18
-17z"/>
<path d="M4640 1343 c0 -15 19 -37 26 -31 3 4 -1 14 -10 23 -9 9 -16 13 -16 8z"/>
<path d="M4439 1323 c-9 -2 -31 -30 -48 -62 -23 -44 -29 -64 -23 -86 l8 -28
18 27 c10 15 18 43 19 61 1 18 5 31 10 28 6 -4 8 4 6 23 0 3 8 12 18 19 20 15
16 23 -8 18z"/>
<path d="M4048 1292 c-16 -9 -28 -20 -28 -24 0 -15 17 -8 40 17 27 29 25 31
-12 7z"/>
<path d="M3050 1263 c-30 -50 -47 -137 -38 -193 3 -25 4 -59 1 -77 -3 -19 2
-51 13 -78 14 -37 15 -48 5 -54 -10 -6 -9 -10 3 -14 13 -5 16 -22 16 -79 l1
-73 61 -45 c34 -25 65 -46 68 -48 9 -4 -7 100 -25 162 -8 27 -26 68 -40 92
-14 24 -24 49 -23 56 2 7 -2 12 -9 11 -14 -3 -28 19 -37 62 l-6 30 15 -25 c14
-25 14 -25 15 -2 0 17 6 22 28 22 24 1 25 2 10 14 -31 23 -46 74 -36 115 5 20
12 49 15 64 5 26 9 28 36 23 33 -7 31 0 -5 18 -32 16 -35 43 -6 49 18 3 16 5
-9 6 -26 1 -35 -5 -53 -36z"/>
<path d="M4538 1250 c-28 -40 -24 -54 6 -24 9 8 16 10 16 4 0 -6 -7 -13 -15
-16 -19 -8 -19 -38 -1 -53 21 -17 65 39 59 73 -3 14 -12 26 -20 26 -9 0 -13 6
-9 15 10 28 -9 14 -36 -25z"/>
<path d="M4781 1275 c1 -11 5 -33 9 -50 l8 -30 1 35 c0 19 -4 42 -9 50 -8 12
-10 11 -9 -5z"/>
<path d="M3959 1243 c-13 -16 -12 -17 4 -4 9 7 17 15 17 17 0 8 -8 3 -21 -13z"/>
<path d="M4636 1207 c-34 -44 -33 -55 4 -49 27 4 30 8 30 43 0 22 -2 39 -4 39
-3 0 -16 -15 -30 -33z"/>
<path d="M4048 1204 c-16 -8 -28 -19 -28 -24 0 -5 16 0 35 11 51 31 45 42 -7
13z"/>
<path d="M2750 1171 c0 -6 5 -11 10 -11 6 0 10 -9 10 -20 0 -11 5 -20 10 -20
6 0 10 5 10 11 0 5 5 7 11 3 8 -5 8 -9 -1 -14 -6 -4 -11 -10 -11 -14 2 -15 0
-15 -19 1 -11 10 -20 24 -20 33 0 13 -2 13 -9 1 -13 -20 -4 -36 27 -52 15 -8
31 -18 35 -24 5 -6 6 -2 3 8 -3 10 -2 27 4 36 7 14 4 23 -13 38 -31 28 -47 36
-47 24z"/>
<path d="M3315 1170 c3 -5 11 -10 16 -10 6 0 7 5 4 10 -3 6 -11 10 -16 10 -6
0 -7 -4 -4 -10z"/>
<path d="M4255 1160 c-3 -5 -1 -10 4 -10 6 0 11 5 11 10 0 6 -2 10 -4 10 -3 0
-8 -4 -11 -10z"/>
<path d="M4641 1135 l-24 -13 21 -6 c12 -4 20 -12 16 -17 -3 -5 -10 -6 -16 -3
-7 4 -8 2 -4 -4 4 -7 -6 -17 -26 -26 l-33 -14 35 -1 c52 -1 69 17 61 61 -6 35
-7 36 -30 23z"/>
<path d="M4321 1108 c0 -13 4 -32 9 -43 7 -16 9 -13 9 17 1 20 -3 40 -9 43 -6
3 -10 -4 -9 -17z"/>
<path d="M4411 1069 c-13 -22 -21 -42 -18 -45 4 -5 57 67 57 79 0 19 -19 3
-39 -34z"/>
<path d="M4470 1105 c0 -5 5 -17 10 -25 5 -8 10 -10 10 -5 0 6 -5 17 -10 25
-5 8 -10 11 -10 5z"/>
<path d="M4086 1093 c-10 -10 -7 -25 3 -18 5 3 12 1 16 -5 4 -7 13 -7 26 1 12
6 18 13 15 16 -8 9 -53 13 -60 6z"/>
<path d="M3249 1066 c0 -11 -2 -31 -3 -43 -3 -22 1 -23 57 -23 33 0 57 3 54 7
-4 3 0 15 10 25 15 17 15 18 -13 18 -17 0 -46 9 -67 19 l-37 19 -1 -22z m34
-25 c2 -11 15 -21 28 -24 17 -3 13 -5 -12 -6 -33 -1 -37 1 -35 24 1 30 12 33
19 6z"/>
<path d="M4297 1048 c-2 -18 -1 -42 4 -53 5 -14 8 -4 8 33 1 59 -4 68 -12 20z"/>
<path d="M4437 1060 c-25 -30 -31 -64 -13 -79 13 -11 16 -11 16 3 0 9 7 28 16
41 10 15 13 29 7 39 -8 14 -11 13 -26 -4z"/>
<path d="M4655 1045 c-3 -8 -7 -21 -9 -29 -2 -7 -19 -16 -38 -20 -29 -7 -30
-9 -13 -16 11 -4 28 -3 38 2 10 5 26 7 35 3 9 -3 13 -3 9 1 -4 4 -2 13 4 21 9
10 8 13 -5 13 -9 0 -16 5 -16 10 0 6 5 10 10 10 6 0 10 5 10 10 0 16 -20 12
-25 -5z"/>
<path d="M4157 1032 c-15 -2 -25 -8 -22 -13 8 -12 62 -12 69 0 8 12 -12 17
-47 13z"/>
<path d="M4605 1020 c-13 -6 -15 -9 -5 -9 8 0 22 4 30 9 18 12 2 12 -25 0z"/>
<path d="M3370 1005 c0 -8 4 -15 10 -15 5 0 7 7 4 15 -4 8 -8 15 -10 15 -2 0
-4 -7 -4 -15z"/>
<path d="M2670 1000 c0 -5 5 -10 11 -10 5 0 7 5 4 10 -3 6 -8 10 -11 10 -2 0
-4 -4 -4 -10z"/>
<path d="M2703 975 c4 -8 2 -17 -3 -20 -20 -12 -9 -46 23 -75 17 -16 37 -30
44 -30 19 0 2 43 -29 72 -15 14 -28 29 -28 32 0 13 16 5 43 -20 16 -14 31 -23
34 -20 7 6 -66 75 -81 76 -4 0 -6 -7 -3 -15z"/>
<path d="M3170 982 c0 -4 9 -8 20 -8 11 0 20 4 20 8 0 4 -9 8 -20 8 -11 0 -20
-4 -20 -8z"/>
<path d="M4200 966 c0 -22 3 -27 11 -19 8 8 8 16 0 30 -9 16 -10 14 -11 -11z"/>
<path d="M4637 973 c-4 -3 -7 -16 -6 -27 0 -21 1 -21 9 -1 6 13 9 15 9 5 1
-13 3 -13 10 0 14 22 -4 41 -22 23z"/>
<path d="M2660 945 c0 -33 15 -33 16 0 1 14 -2 25 -7 25 -5 0 -9 -11 -9 -25z"/>
<path d="M3207 953 c-16 -15 -5 -23 28 -20 46 3 56 27 11 27 -18 0 -36 -3 -39
-7z"/>
<path d="M2533 923 c9 -2 23 -2 30 0 6 3 -1 5 -18 5 -16 0 -22 -2 -12 -5z"/>
<path d="M4206 883 c4 -21 8 -66 8 -100 1 -46 4 -59 13 -52 8 7 12 4 15 -12 3
-22 4 -22 21 -4 16 15 18 27 12 79 -9 79 -16 89 -30 40 l-11 -39 -8 63 c-4 34
-12 62 -18 62 -7 0 -8 -12 -2 -37z"/>
<path d="M4630 901 c-31 -16 -35 -23 -38 -65 -2 -30 1 -46 9 -46 8 0 8 -4 -1
-15 -16 -19 -5 -19 50 3 l45 17 -3 63 c-3 69 -8 72 -62 43z m49 -95 c-2 -2
-17 -6 -34 -10 -22 -5 -26 -4 -15 4 14 9 59 15 49 6z"/>
<path d="M3298 885 c-3 -3 -18 -8 -34 -11 -32 -6 -57 -24 -33 -24 25 0 88 20
94 30 6 10 -18 14 -27 5z"/>
<path d="M4404 868 c-39 -43 -73 -113 -63 -129 6 -10 9 -10 9 -1 0 6 3 11 8
11 4 -1 24 -1 45 0 43 1 50 18 10 24 l-28 4 28 2 c27 1 28 3 26 46 -4 60 -11
70 -35 43z m-24 -92 c0 -3 -4 -8 -10 -11 -5 -3 -10 -1 -10 4 0 6 5 11 10 11 6
0 10 -2 10 -4z"/>
<path d="M4463 830 c0 -30 2 -43 4 -27 2 15 2 39 0 55 -2 15 -4 2 -4 -28z"/>
<path d="M2536 862 c-2 -4 20 -8 50 -8 33 0 48 3 37 7 -25 10 -81 11 -87 1z"/>
<path d="M4130 790 c0 -5 4 -10 9 -10 5 0 12 -12 14 -27 3 -23 4 -21 6 10 1
27 -3 37 -14 37 -8 0 -15 -4 -15 -10z"/>
<path d="M3333 767 c-17 -7 -34 -15 -37 -18 -8 -7 30 -104 40 -104 24 1 84 28
84 38 0 22 -35 97 -45 96 -5 0 -24 -6 -42 -12z"/>
<path d="M2612 759 c-19 -4 -38 -11 -43 -16 -10 -10 19 -105 34 -111 4 -2 7
-12 7 -23 0 -27 11 -23 40 14 l25 32 -27 -18 c-33 -21 -40 0 -8 23 22 16 27
50 8 50 -9 0 -9 3 -2 8 6 4 8 16 5 28 -5 17 -11 19 -39 13z"/>
<path d="M4640 756 c0 -2 7 -7 16 -10 8 -3 12 -2 9 4 -6 10 -25 14 -25 6z"/>
<path d="M2797 722 c3 -9 10 -22 14 -28 5 -6 7 -13 6 -15 -2 -2 23 -31 56 -64
l59 -60 -58 87 c-56 82 -91 119 -77 80z"/>
<path d="M3193 665 c6 -25 14 -45 19 -45 11 0 10 18 -4 57 -17 48 -27 40 -15
-12z"/>
<path d="M4620 677 c-28 -14 -35 -42 -25 -94 6 -32 8 -33 19 -17 9 11 26 17
50 17 l37 0 -3 51 c-3 46 -5 51 -28 54 -14 1 -36 -4 -50 -11z"/>
<path d="M2958 663 c-3 -10 1 -24 7 -30 10 -9 14 -7 18 8 3 11 11 18 17 17 7
-2 15 3 17 10 3 6 -2 12 -10 12 -9 0 -18 -6 -20 -12 -4 -10 -8 -10 -15 0 -7
11 -10 10 -14 -5z"/>
<path d="M3388 648 c-35 -9 -53 -28 -26 -28 20 0 78 24 78 32 0 9 -3 9 -52 -4z"/>
<path d="M4161 620 l1 -45 11 33 c7 24 7 36 -1 44 -9 9 -12 1 -11 -32z"/>
<path d="M4333 644 c-3 -9 -2 -32 3 -51 7 -30 14 -36 39 -39 17 -2 39 -5 50
-6 18 -3 20 2 18 46 -1 28 -7 52 -15 57 -24 15 -88 10 -95 -7z"/>
<path d="M4206 374 c1 -152 5 -279 8 -282 8 -7 7 -22 7 238 0 313 0 320 -10
320 -5 0 -7 -120 -5 -276z"/>
<path d="M4136 625 c-9 -26 -7 -32 5 -12 6 10 9 21 6 23 -2 3 -7 -2 -11 -11z"/>
<path d="M4473 590 c0 -30 2 -43 4 -27 2 15 2 39 0 55 -2 15 -4 2 -4 -28z"/>
<path d="M3002 610 c0 -14 2 -19 5 -12 2 6 2 18 0 25 -3 6 -5 1 -5 -13z"/>
<path d="M4753 580 c0 -30 2 -43 4 -27 2 15 2 39 0 55 -2 15 -4 2 -4 -28z"/>
<path d="M3215 590 c3 -5 8 -10 11 -10 2 0 4 5 4 10 0 6 -5 10 -11 10 -5 0 -7
-4 -4 -10z"/>
<path d="M2625 572 c6 -4 10 -11 11 -17 0 -5 3 -21 6 -35 4 -14 12 -52 18 -85
7 -33 16 -65 20 -70 5 -6 16 -64 25 -130 9 -66 20 -124 23 -130 4 -5 7 -12 7
-15 13 -82 17 -90 46 -90 23 0 29 4 29 21 0 15 -4 19 -16 15 -14 -5 -15 -4 -4
9 10 13 10 19 -2 33 -8 9 -13 31 -12 47 4 39 -20 131 -34 128 -5 -1 -8 7 -4
19 3 14 1 19 -6 14 -8 -5 -10 -2 -6 8 4 9 1 16 -6 16 -9 0 -10 3 -1 14 9 11 8
15 -5 20 -13 5 -15 14 -10 42 10 52 -3 126 -23 131 -10 2 -22 18 -28 34 -6 16
-17 29 -25 29 -8 0 -9 -3 -3 -8z"/>
<path d="M3610 560 c0 -20 39 -104 45 -98 3 3 -6 29 -20 59 -14 30 -25 47 -25
39z"/>
<path d="M3210 556 c0 -12 23 -66 28 -66 26 1 28 17 7 43 -22 24 -35 33 -35
23z"/>
<path d="M4091 534 c-13 -14 -22 -27 -19 -29 2 -3 15 6 28 20 13 14 21 27 19
29 -2 3 -15 -6 -28 -20z"/>
<path d="M2860 525 c9 -10 9 -15 1 -15 -6 0 -11 -11 -11 -25 0 -22 4 -25 34
-25 19 0 41 -3 50 -6 11 -4 16 0 16 13 0 28 -28 63 -45 57 -8 -4 -15 -1 -15 5
0 6 -10 11 -21 11 -18 0 -19 -2 -9 -15z m68 -50 c-3 -3 -9 2 -12 12 -6 14 -5
15 5 6 7 -7 10 -15 7 -18z m-28 5 c0 -5 -2 -10 -4 -10 -3 0 -8 5 -11 10 -3 6
-1 10 4 10 6 0 11 -4 11 -10z"/>
<path d="M3433 527 c-49 -11 -52 -21 -23 -78 20 -39 21 -40 71 -37 49 3 50 4
45 30 -8 40 -34 98 -43 97 -4 -1 -27 -6 -50 -12z"/>
<path d="M2521 514 c0 -11 3 -14 6 -6 3 7 2 16 -1 19 -3 4 -6 -2 -5 -13z"/>
<path d="M3100 528 c0 -4 11 -28 26 -55 14 -26 22 -37 18 -24 -7 25 -44 92
-44 79z"/>
<path d="M3050 504 c0 -35 13 -94 20 -94 8 0 -4 97 -13 107 -4 3 -7 -2 -7 -13z"/>
<path d="M4039 483 c-13 -16 -12 -17 4 -4 9 7 17 15 17 17 0 8 -8 3 -21 -13z"/>
<path d="M4795 489 c-4 -6 -5 -13 -2 -16 7 -7 27 6 27 18 0 12 -17 12 -25 -2z"/>
<path d="M4594 469 c-5 -9 1 -10 24 -6 33 7 62 1 62 -13 0 -5 -9 -6 -20 -3
-11 3 -30 3 -43 -1 -21 -5 -23 -9 -17 -52 5 -45 7 -47 48 -59 23 -7 43 -10 45
-6 2 3 3 38 2 76 l0 70 -47 3 c-28 2 -49 -2 -54 -9z"/>
<path d="M4015 450 c-3 -5 -1 -10 4 -10 6 0 11 5 11 10 0 6 -2 10 -4 10 -3 0
-8 -4 -11 -10z"/>
<path d="M2535 415 c13 -83 17 -97 25 -88 11 10 -6 103 -21 118 -7 7 -9 -2 -4
-30z"/>
<path d="M4344 441 c3 -4 24 -11 46 -15 49 -8 80 5 35 15 -45 10 -87 10 -81 0z"/>
<path d="M4120 223 c0 -119 2 -214 5 -212 9 10 15 429 5 429 -6 0 -10 -81 -10
-217z"/>
<path d="M4342 361 l3 -56 55 0 55 0 -4 50 c-1 28 -4 51 -5 51 0 1 -25 4 -54
6 l-53 5 3 -56z"/>
<path d="M3314 394 c-19 -15 -19 -15 1 -6 11 5 27 12 35 15 13 5 13 6 -1 6 -8
1 -24 -6 -35 -15z"/>
<path d="M4470 359 c0 -31 4 -48 10 -44 6 3 10 26 10 51 0 24 -4 44 -10 44 -5
0 -10 -23 -10 -51z"/>
<path d="M4761 346 c4 -66 19 -81 19 -19 0 28 -5 55 -11 58 -6 5 -9 -9 -8 -39z"/>
<path d="M3338 373 c-10 -2 -18 -9 -18 -14 0 -13 14 -11 29 4 11 10 13 9 7 -6
-3 -10 -6 -20 -6 -23 0 -2 -7 0 -17 3 -12 5 -14 3 -8 -8 7 -11 5 -11 -10 1
-17 14 -18 13 -12 -10 4 -14 7 -35 7 -47 0 -13 5 -23 10 -23 6 0 10 10 10 23
0 15 3 18 9 9 5 -9 17 -11 34 -6 26 6 35 23 20 38 -4 4 -8 13 -9 19 0 7 -2 20
-2 30 -2 17 -11 19 -44 10z"/>
<path d="M3515 358 c-4 -11 1 -31 15 -53 17 -28 28 -35 54 -35 18 0 37 -5 44
-12 9 -9 12 -8 12 8 0 22 -62 88 -73 78 -4 -4 -7 -2 -7 5 0 7 -6 11 -14 8 -8
-3 -17 -1 -19 6 -3 8 -7 6 -12 -5z"/>
<path d="M3710 328 c0 -17 40 -62 47 -54 3 3 -6 19 -21 36 -14 17 -26 25 -26
18z"/>
<path d="M3996 323 c-6 -14 -5 -15 5 -6 7 7 10 15 7 18 -3 3 -9 -2 -12 -12z"/>
<path d="M2870 311 c0 -6 7 -8 15 -5 8 4 15 1 15 -5 0 -6 -7 -11 -15 -11 -18
0 -20 -36 -2 -43 10 -4 10 -6 0 -6 -7 -1 -13 -5 -13 -10 0 -6 12 -6 29 -1 15
4 39 6 53 3 24 -5 24 -3 19 39 l-6 43 -47 3 c-28 2 -48 -1 -48 -7z m37 -37
c-3 -3 -12 -4 -19 -1 -8 3 -5 6 6 6 11 1 17 -2 13 -5z"/>
<path d="M2560 294 c0 -10 5 -26 10 -34 8 -11 9 -7 4 15 -8 37 -14 45 -14 19z"/>
<path d="M3167 273 c8 -50 13 -55 13 -10 0 20 -4 38 -9 42 -6 3 -7 -10 -4 -32z"/>
<path d="M3082 275 c0 -11 4 -33 8 -50 7 -27 8 -27 8 -5 0 14 -4 36 -8 50 -6
20 -8 21 -8 5z"/>
<path d="M4814 256 c-10 -27 2 -43 14 -19 8 14 9 24 2 28 -6 3 -13 -1 -16 -9z"/>
<path d="M3970 230 c-12 -16 -19 -34 -15 -39 3 -6 -3 -15 -12 -20 -17 -10 -17
-12 1 -26 20 -15 20 -15 0 -31 -16 -13 -16 -15 -1 -10 11 3 17 0 17 -9 0 -8
-9 -15 -20 -15 -11 0 -20 -4 -20 -10 0 -5 9 -10 20 -10 25 0 27 -20 3 -21 -14
0 -12 -3 5 -10 13 -5 20 -13 17 -19 -3 -5 2 -10 13 -10 15 0 19 8 20 36 1 20
4 39 6 41 3 3 1 15 -3 27 -5 11 -5 30 -1 41 5 13 2 26 -8 38 -8 9 -11 17 -6
17 5 0 10 14 11 30 3 37 0 37 -27 0z"/>
<path d="M2591 155 c16 -84 24 -104 34 -93 6 5 -10 90 -22 118 -3 8 -7 21 -9
29 -1 7 -7 18 -12 23 -4 4 -1 -30 9 -77z"/>
<path d="M3650 223 c0 -18 -6 -23 -24 -23 -14 0 -28 -4 -31 -10 -4 -6 8 -10
30 -10 22 0 34 -4 30 -10 -10 -16 21 -12 34 4 9 11 9 16 -2 23 -8 4 -19 17
-25 28 -11 19 -11 19 -12 -2z"/>
<path d="M4607 233 c-4 -3 12 -15 35 -25 46 -21 52 -19 41 8 -8 19 -63 31 -76
17z"/>
<path d="M3810 180 c6 -11 12 -20 14 -20 2 0 2 9 -1 20 -3 11 -9 20 -15 20 -5
0 -4 -9 2 -20z"/>
<path d="M4340 190 c0 -5 24 -10 54 -10 30 0 58 5 61 10 4 6 -17 10 -54 10
-34 0 -61 -4 -61 -10z"/>
<path d="M4780 180 c0 -5 5 -10 11 -10 5 0 7 5 4 10 -3 6 -8 10 -11 10 -2 0
-4 -4 -4 -10z"/>
<path d="M3370 164 c-30 -6 -44 -12 -30 -12 38 -1 106 13 95 19 -5 3 -35 0
-65 -7z"/>
<path d="M4657 169 c7 -7 15 -10 18 -7 3 3 -2 9 -12 12 -14 6 -15 5 -6 -5z"/>
<path d="M3665 150 c-11 -5 -14 -9 -7 -9 23 -2 12 -21 -12 -21 -14 0 -28 -4
-31 -10 -4 -6 7 -10 27 -10 28 0 33 -4 36 -25 1 -14 3 -36 5 -50 2 -20 8 -25
30 -25 31 0 32 2 13 72 -25 93 -25 93 -61 78z m22 -22 c-3 -8 -6 -5 -6 6 -1
11 2 17 5 13 3 -3 4 -12 1 -19z m21 -53 c-3 -3 -9 2 -12 12 -6 14 -5 15 5 6 7
-7 10 -15 7 -18z"/>
<path d="M4428 141 c17 -11 -7 -21 -49 -21 -16 0 -29 -5 -29 -11 0 -13 92 -9
102 4 10 15 -2 37 -21 37 -12 0 -13 -2 -3 -9z"/>
<path d="M4610 145 c0 -9 62 -36 68 -30 9 9 -28 35 -50 35 -10 0 -18 -2 -18
-5z"/>
<path d="M2950 123 c-8 -3 -26 -10 -39 -15 -13 -5 -22 -11 -19 -13 2 -3 26 4
54 15 27 10 42 19 34 19 -8 0 -22 -3 -30 -6z"/>
<path d="M4780 99 c0 -5 5 -7 10 -4 6 3 10 8 10 11 0 2 -4 4 -10 4 -5 0 -10
-5 -10 -11z"/>
<path d="M3380 83 c-49 -9 -45 -23 5 -17 60 8 96 24 50 22 -16 0 -41 -3 -55
-5z"/>
<path d="M4845 52 c-12 -9 -24 -25 -28 -34 -5 -15 0 -18 34 -18 39 0 40 1 37
32 -4 38 -16 43 -43 20z"/>
<path d="M2946 35 c-8 -9 -19 -16 -23 -16 -15 -1 -17 -9 -2 -9 8 1 30 9 49 20
29 16 31 19 13 20 -12 0 -28 -7 -37 -15z"/>
<path d="M3661 14 c0 -11 3 -14 6 -6 3 7 2 16 -1 19 -3 4 -6 -2 -5 -13z"/>
<path d="M4610 10 c0 -5 15 -10 33 -9 27 0 29 2 12 9 -28 12 -45 12 -45 0z"/>
<path d="M4413 3 c9 -2 25 -2 35 0 9 3 1 5 -18 5 -19 0 -27 -2 -17 -5z"/>
</g>
</svg>
